<svg width="128" height="128" viewBox="0 0 128 128" fill="none" xmlns="http://www.w3.org/2000/svg">
<path d="M16 14C16 12.8954 16.8954 12 18 12H26C27.1046 12 28 12.8954 28 14V50H32V14C32 12.8954 32.8954 12 34 12H42C43.1046 12 44 12.8954 44 14C44 12.8954 44.8954 12 46 12H54C55.1046 12 56 12.8954 56 14V50H60V14C60 12.8954 60.8954 12 62 12H70C71.1046 12 72 12.8954 72 14V50H84V14C84 12.8954 84.8954 12 86 12H94C95.1046 12 96 12.8954 96 14V50H100V14C100 12.8954 100.895 12 102 12H110C111.105 12 112 12.8954 112 14V50H118C119.105 50 120 50.8954 120 52V56C120 57.1046 119.105 58 118 58L10 58C8.89543 58 8 57.1046 8 56V52C8 50.8954 8.89543 50 10 50L16 50V14Z" fill="#445c61" id="id_101"></path>
<path d="M26 20H18V24H26V20Z" fill="white" id="id_102"></path>
<path d="M42 20H34V24H42V20Z" fill="white" id="id_103"></path>
<path d="M46 20H54V24H46V20Z" fill="white" id="id_104"></path>
<path d="M70 20H62V24H70V20Z" fill="white" id="id_105"></path>
<path d="M86 20H94V24H86V20Z" fill="white" id="id_106"></path>
<path d="M110 20H102V24H110V20Z" fill="white" id="id_107"></path>
<path fill-rule="evenodd" clip-rule="evenodd" d="M96.6332 108H118C119.105 108 120 108.895 120 110V114C120 115.105 119.105 116 118 116L10 116C8.89543 116 8 115.105 8 114V110C8 108.895 8.89543 108 10 108L16 108V72C16 70.8954 16.8954 70 18 70H26C27.1046 70 28 70.8954 28 72C28 70.8954 28.8954 70 30 70H38C39.1046 70 40 70.8954 40 72V108H44V72C44 70.8954 44.8954 70 46 70H54C55.1046 70 56 70.8954 56 72V108H60V72C60 70.8954 60.8954 70 62 70H70C71.1046 70 72 70.8954 72 72C72 70.8954 72.8954 70 74 70H82C82.6794 70 83.2797 70.3388 83.6412 70.8566C83.8752 70.3148 84.3458 69.8813 84.9602 69.7167L92.6876 67.6462C93.7545 67.3603 94.8512 67.9934 95.1371 69.0604L104.455 103.834C104.74 104.901 104.107 105.997 103.04 106.283L96.6332 108ZM84 73.8607V108H93.5664C93.2344 107.742 92.9807 107.377 92.8634 106.94L84 73.8607Z" fill="#9e5b09" id="id_108"></path>
<path d="M94.7577 75.3737L87.0303 77.4442L88.0656 81.3079L95.793 79.2374L94.7577 75.3737Z" fill="white" id="id_109"></path>
<path d="M26 78H18V82H26V78Z" fill="white" id="id_110"></path>
<path d="M38 78H30V82H38V78Z" fill="white" id="id_111"></path>
<path d="M46 78H54V82H46V78Z" fill="white" id="id_112"></path>
<path d="M70 78H62V82H70V78Z" fill="white" id="id_113"></path>
<path d="M74 78H82V82H74V78Z" fill="white" id="id_114"></path>
</svg>